<?xml version="1.0" encoding="utf-8"?>
<!-- Generator: Adobe Illustrator 23.0.0, SVG Export Plug-In . SVG Version: 6.00 Build 0)  -->
<svg version="1.1" id="Layer_1" xmlns="http://www.w3.org/2000/svg" xmlns:xlink="http://www.w3.org/1999/xlink" x="0px" y="0px"
	 viewBox="0 0 119.9 31.3" style="enable-background:new 0 0 119.9 31.3;" xml:space="preserve">
<style type="text/css">
	.st0{display:none;}
	.st1{display:inline;}
	.st2{fill-rule:evenodd;clip-rule:evenodd;fill:#ED1B2E;}
</style>
<g class="st0">
	<g class="st1">
		<path class="st2" d="M-248.9,0.3c-2.2,0-4.2,0-6.2,0c0-2.1,0-4.1,0-6.3c1.9,0,3.8,0,5.6,0c0.2,0,0.6,0.3,0.6,0.5
			C-248.9-3.6-248.9-1.7-248.9,0.3z"/>
		<path class="st2" d="M-241.7-6c0,2.2,0,4.2,0,6.3c-2,0-4.1,0-6.3,0c0-1.9,0-3.8,0-5.7c0-0.2,0.4-0.5,0.6-0.5
			C-245.5-6-243.6-6-241.7-6z"/>
		<path class="st2" d="M-220.2-6c0,2.1,0,4.1,0,6.2c-2,0-4,0-6.1,0c0-2.1,0-4.1,0-6.2C-224.3-6-222.3-6-220.2-6z"/>
		<path class="st2" d="M-233.5,0.4c0-2.2,0-4.2,0-6.4c1.9,0,3.8,0,5.7,0c0.2,0,0.5,0.4,0.5,0.7c0,1.7,0,3.3,0,5
			c0,0.2-0.4,0.6-0.6,0.6C-229.8,0.4-231.6,0.4-233.5,0.4z"/>
		<path class="st2" d="M-256.1,7.5c-2.1,0-4.1,0-6.2,0c0-2,0-4,0-6.2c2,0,4,0,6.2,0C-256.1,3.3-256.1,5.3-256.1,7.5z"/>
		<path class="st2" d="M-241.7,7.5c-2.1,0-4.1,0-6.2,0c0-2,0-4.1,0-6.2c2,0,4.1,0,6.2,0C-241.7,3.4-241.7,5.4-241.7,7.5z"/>
		<path class="st2" d="M-240.7,1.3c2.1,0,4.1,0,6.1,0c0,2.1,0,4.1,0,6.2c-2.1,0-4.1,0-6.1,0C-240.7,5.4-240.7,3.4-240.7,1.3z"/>
		<path class="st2" d="M-233.5,7.5c0-2.1,0-4.1,0-6.2c2,0,4,0,6.1,0c0,2,0,4.1,0,6.2C-229.4,7.5-231.4,7.5-233.5,7.5z"/>
		<path class="st2" d="M-220.2,1.3c0,2.1,0,4.1,0,6.1c-2.1,0-4.1,0-6.2,0c0-2,0-4,0-6.1C-224.3,1.3-222.3,1.3-220.2,1.3z"/>
		<path class="st2" d="M-219.1,7.4c0-2.1,0-4.1,0-6.2c2.1,0,4,0,6.1,0c0,2,0,4.1,0,6.2C-215,7.4-216.9,7.4-219.1,7.4z"/>
		<path class="st2" d="M-227.4,36.3c-2.2,0-4.1,0-6.1,0c0-2.1,0-4.1,0-6.2c2.1,0,4,0,6.1,0C-227.4,32.2-227.4,34.2-227.4,36.3z"/>
		<path class="st2" d="M-256.1,14.6c-1.9,0-3.7,0-5.6,0c-0.2,0-0.6-0.4-0.6-0.6c-0.1-1.8,0-3.6,0-5.5c2.1,0,4.2,0,6.2,0
			C-256.1,10.5-256.1,12.5-256.1,14.6z"/>
		<path class="st2" d="M-241.7,14.6c-1.9,0-3.7,0-5.6,0c-0.2,0-0.6-0.4-0.6-0.6c-0.1-1.8,0-3.6,0-5.5c2.1,0,4.2,0,6.2,0
			C-241.7,10.5-241.7,12.5-241.7,14.6z"/>
		<path class="st2" d="M-234.6,14.6c-2.1,0-4.1,0-6.1,0c0-2.1,0-4,0-6.1c2,0,4,0,6.1,0C-234.6,10.5-234.6,12.5-234.6,14.6z"/>
		<path class="st2" d="M-240.7,37.2c2,0,4.1,0,6.1,0c0,2.1,0,4.1,0,6.2c-2,0-4,0-6.1,0C-240.7,41.4-240.7,39.4-240.7,37.2z"/>
		<path class="st2" d="M-226.3,14.5c0-2.1,0-4,0-6.1c2.1,0,4.1,0,6.2,0c0,2,0,4,0,6.1C-222.2,14.5-224.2,14.5-226.3,14.5z"/>
		<path class="st2" d="M-255.2,14.5c0-2.1,0-4,0-6.1c2.1,0,4.1,0,6.2,0c0,2,0,4,0,6.1C-251,14.5-253,14.5-255.2,14.5z"/>
		<path class="st2" d="M-262.3,21.8c0-2.1,0-4,0-6.1c2.1,0,4.1,0,6.2,0c0,2,0,4,0,6.1C-258.1,21.8-260.2,21.8-262.3,21.8z"/>
		<path class="st2" d="M-248.9,15.7c0,2.1,0,4.1,0,6.1c-2.1,0-4.1,0-6.2,0c0-2,0-4,0-6.1C-253.1,15.7-251.1,15.7-248.9,15.7z"/>
		<path class="st2" d="M-241.7,21.8c-2,0-4,0-6.1,0c0-2,0-4,0-6.1c2,0,4,0,6.1,0C-241.7,17.7-241.7,19.7-241.7,21.8z"/>
		<path class="st2" d="M-240.7,15.7c2.1,0,4,0,6.1,0c0,2.1,0,4.1,0,6.2c-2,0-4,0-6.1,0C-240.7,19.8-240.7,17.8-240.7,15.7z"/>
		<path class="st2" d="M-233.5,21.9c0-2.1,0-4.1,0-6.2c2,0,4,0,6.1,0c0,2,0,4.1,0,6.2C-229.4,21.9-231.4,21.9-233.5,21.9z"/>
		<path class="st2" d="M-220.2,21.9c-2,0-4,0-6.1,0c0-2,0-4,0-6.1c2,0,4,0,6.1,0C-220.2,17.7-220.2,19.7-220.2,21.9z"/>
		<path class="st2" d="M-212.9,21.8c-2,0-4,0-6.1,0c0-2,0-4,0-6.1c2,0,4,0,6.1,0C-212.9,17.8-212.9,19.8-212.9,21.8z"/>
		<path class="st2" d="M-255.2,29.1c0-2.2,0-4.1,0-6.2c2.1,0,4.1,0,6.3,0c0,1.9,0,3.7,0,5.6c0,0.2-0.4,0.5-0.6,0.5
			C-251.4,29.1-253.2,29.1-255.2,29.1z"/>
		<path class="st2" d="M-241.7,29c-2.1,0-4.1,0-6.2,0c0-2.1,0-4.1,0-6.1c2.1,0,4.1,0,6.2,0C-241.7,24.9-241.7,26.9-241.7,29z"/>
		<path class="st2" d="M-240.7,22.9c2.1,0,4,0,6.1,0c0,2,0,4,0,6.1c-2,0-4,0-6.1,0C-240.7,26.9-240.7,25-240.7,22.9z"/>
		<path class="st2" d="M-220.2,22.9c0,2.2,0,4.1,0,6.1c-2.1,0-4.1,0-6.2,0c0-2.1,0-4,0-6.1C-224.3,22.9-222.2,22.9-220.2,22.9z"/>
		<path class="st2" d="M-247.9,36.2c0-2,0-4,0-6.1c2.1,0,4.1,0,6.2,0c0,2,0,4,0,6.1C-243.7,36.2-245.7,36.2-247.9,36.2z"/>
		<path class="st2" d="M-240.7,36.3c0-2.1,0-4.1,0-6.1c2.1,0,4.1,0,6.2,0c0,2.1,0,4.1,0,6.1C-236.7,36.3-238.7,36.3-240.7,36.3z"/>
		<path class="st2" d="M-227.3,14.6c-2.1,0-4.1,0-6.2,0c0-2,0-4,0-6.2c1.9,0,3.8,0,5.6,0c0.2,0,0.5,0.4,0.5,0.6
			C-227.3,10.9-227.3,12.7-227.3,14.6z"/>
		<path class="st2" d="M-227.3,29c-2.2,0-4.1,0-6.2,0c0-2,0-4,0-6.2c1.9,0,3.7,0,5.6,0c0.2,0,0.5,0.4,0.5,0.6
			C-227.3,25.3-227.3,27.1-227.3,29z"/>
		<path class="st2" d="M-212.9,14.6c-2.1,0-4.1,0-6.2,0c0-2,0-4,0-6.2c1.9,0,3.8,0,5.6,0c0.2,0,0.5,0.4,0.5,0.6
			C-212.9,10.9-212.9,12.7-212.9,14.6z"/>
	</g>
</g>
<text transform="matrix(1 0 0 1 -276.9736 36.7429)" class="st0" style="font-family:'Haettenschweiler'; font-size:56.1299px; letter-spacing:1;">I     AE</text>
<text transform="matrix(1 0 0 1 -276.2783 53.408)" class="st0" style="font-family:'Haettenschweiler'; font-size:10.4432px; letter-spacing:5;">I Love Ainebel</text>
<text transform="matrix(1 0 0 1 -406.9199 -49.4216)" class="st0" style="font-family:'Haettenschweiler'; font-size:36.1453px;">I    AE</text>
<g>
	<g>
		<path d="M8.3,26.3h-5V3.4h5V26.3z"/>
		<path d="M56.3,26.3h-5l-0.8-6.1h-2.2l-0.9,6.1h-5l3.8-22.9h6.4L56.3,26.3z M50.1,17l-0.7-6.8L48.7,17H50.1z"/>
		<path d="M62.2,6.8h-4.5V3.4h4.5V6.8z M62.2,26.3h-4.5V7.8h4.5V26.3z"/>
		<path d="M74.5,26.3h-4.5V11.4c0-0.6-0.3-0.8-0.8-0.8c-0.5,0-0.8,0.3-0.8,0.8v14.9h-4.5V7.8h4.5v0.6c0.6-0.5,1.5-0.8,2.8-0.8
			c0.8,0,1.6,0.2,2.3,0.7c0.7,0.4,1,1.1,1,2V26.3z"/>
		<path d="M86,26.3h-9.8V3.4h9.8v2.9h-4.7v6.2h4.3v2.8h-4.3v8H86V26.3z"/>
		<path d="M91.2,25.7l-0.4,0.6h-3.4V3.4H92v4.9c0.5-0.5,1.5-0.7,2.8-0.7c0.8,0,1.6,0.2,2.3,0.7c0.7,0.4,1,1.1,1,1.9v13.3
			c0,0.9-0.4,1.7-1.2,2.2c-0.8,0.5-1.8,0.8-3,0.8C93,26.6,92.1,26.3,91.2,25.7z M93.5,22.9V11.4c0-0.6-0.3-0.8-0.8-0.8
			c-0.5,0-0.8,0.3-0.8,0.8v11.5c0,0.6,0.3,0.8,0.8,0.8C93.3,23.7,93.5,23.4,93.5,22.9z"/>
		<path d="M110.4,18.5h-6.1v4.3c0,0.6,0.3,0.9,0.8,0.9c0.5,0,0.8-0.3,0.8-0.9v-3.7h4.5v3.8c0,2.5-1.8,3.8-5.3,3.8
			c-3.5,0-5.3-1.3-5.3-3.9V11.6c0-2.6,1.8-3.9,5.3-3.9c3.6,0,5.3,1.3,5.3,3.8V18.5z M105.8,15.7v-4.2c0-0.6-0.3-0.9-0.8-0.9
			c-0.5,0-0.8,0.3-0.8,0.9v4.2H105.8z"/>
		<path d="M116.6,26.3h-4.5V3.4h4.5V26.3z"/>
	</g>
	<rect x="12.3" y="5.7" class="st2" width="3.6" height="3.6"/>
	<rect x="20.5" y="5.7" class="st2" width="3.6" height="3.6"/>
	<rect x="24.7" y="5.7" class="st2" width="3.6" height="3.6"/>
	<rect x="28.8" y="5.7" class="st2" width="3.6" height="3.6"/>
	<rect x="33" y="5.7" class="st2" width="3.6" height="3.6"/>
	<rect x="37.1" y="5.7" class="st2" width="3.6" height="3.6"/>
	<rect x="12.3" y="9.8" class="st2" width="3.6" height="3.6"/>
	<rect x="16.4" y="9.8" class="st2" width="3.6" height="3.6"/>
	<rect x="20.5" y="9.8" class="st2" width="3.6" height="3.6"/>
	<rect x="24.7" y="9.8" class="st2" width="3.6" height="3.6"/>
	<rect x="28.8" y="9.8" class="st2" width="3.6" height="3.6"/>
	<rect x="33" y="9.8" class="st2" width="3.6" height="3.6"/>
	<rect x="37.1" y="9.8" class="st2" width="3.6" height="3.6"/>
	<rect x="12.3" y="13.9" class="st2" width="3.6" height="3.6"/>
	<rect x="16.4" y="13.9" class="st2" width="3.6" height="3.6"/>
	<rect x="20.5" y="13.9" class="st2" width="3.6" height="3.6"/>
	<rect x="24.7" y="13.9" class="st2" width="3.6" height="3.6"/>
	<rect x="28.8" y="13.9" class="st2" width="3.6" height="3.6"/>
	<rect x="33" y="13.9" class="st2" width="3.6" height="3.6"/>
	<rect x="37.1" y="13.9" class="st2" width="3.6" height="3.6"/>
	<rect x="16.4" y="18" class="st2" width="3.6" height="3.6"/>
	<rect x="20.5" y="18" class="st2" width="3.6" height="3.6"/>
	<rect x="24.7" y="18" class="st2" width="3.6" height="3.6"/>
	<rect x="28.8" y="18" class="st2" width="3.6" height="3.6"/>
	<rect x="33" y="18" class="st2" width="3.6" height="3.6"/>
	<rect x="20.5" y="22.1" class="st2" width="3.6" height="3.6"/>
	<rect x="24.7" y="22.1" class="st2" width="3.6" height="3.6"/>
	<rect x="28.8" y="22.1" class="st2" width="3.6" height="3.6"/>
	<rect x="24.7" y="26.2" class="st2" width="3.6" height="3.6"/>
	<rect x="16.4" y="1.6" class="st2" width="3.6" height="3.6"/>
	<rect x="20.5" y="1.6" class="st2" width="3.6" height="3.6"/>
	<rect x="28.8" y="1.6" class="st2" width="3.6" height="3.6"/>
	<rect x="33" y="1.6" class="st2" width="3.6" height="3.6"/>
</g>
</svg>
